<?xml version="1.0" standalone="no"?><!DOCTYPE svg PUBLIC "-//W3C//DTD SVG 1.1//EN" "http://www.w3.org/Graphics/SVG/1.1/DTD/svg11.dtd"><svg t="1782626696790" class="icon" viewBox="0 0 1024 1024" version="1.1" xmlns="http://www.w3.org/2000/svg" p-id="21579" xmlns:xlink="http://www.w3.org/1999/xlink" width="200" height="200"><path d="M860.575 947.088H474.962l276.482-105.137a68.958 68.958 0 0 0 38.6-35.837 70.859 70.859 0 0 0 2.27-53.427l-17.842-50.442a11.753 11.753 0 0 0-14.922-7.3 12.167 12.167 0 0 0-7.134 15.265l17.842 50.437a44.81 44.81 0 0 1-1.624 34.845c-5.19 10.953-13.948 19.58-25.3 23.559L432.226 934.2a42.829 42.829 0 0 1-34.384-1.657 44.855 44.855 0 0 1-23.035-25.885L202.871 421.839c-8.433-23.9 3.569-50.109 26.926-58.736L540.9 247.952a42.838 42.838 0 0 1 34.388 1.657 44.853 44.853 0 0 1 23.034 25.891l70.072 198.77a11.755 11.755 0 0 0 14.922 7.3 12.173 12.173 0 0 0 7.139-15.265l-70.073-198.77a68.84 68.84 0 0 0-35.358-39.494 66.481 66.481 0 0 0-52.231-2.321L221.687 340.869c-35.358 12.942-53.85 53.1-40.877 89.265l171.94 484.821c8.433 23.564 28.164 44.57 50.55 49.214 1.3 1 1.792 0 3.412 0H867.4c4.54 0 10.237-0.234 10.237-4.882 0-4.312-0.03-12.2-17.062-12.2z" fill="#EBEDEF" p-id="21580"></path><path d="M794.628 460.6l-16.455-8.777c-6.467-3.513-15.868 1.169-21.162 10.242L620.072 713.466a7.8 7.8 0 0 0-0.879 3.509l0.879 27.8a1.77 1.77 0 0 0-1.173 0.293l-42.612 15.8a4.607 4.607 0 0 0-4.111 2.634 5.1 5.1 0 0 0 0.882 4.979 4.52 4.52 0 0 0 5 1.168 2.2 2.2 0 0 0 1.467-0.293l40.847-15.217v0.293c0 2.927 2.645 4.389 5.289 2.927l32.328-19.317a6.975 6.975 0 0 0 2.35-2.634l136.939-251.4c5.289-9.367 4.112-19.9-2.645-23.416z m-306.5 332.766l-31.146 11.704a4.17 4.17 0 0 0-2.645 2.341 3.719 3.719 0 0 0 0 3.513 4.422 4.422 0 0 0 4.112 2.928 2.214 2.214 0 0 0 1.472-0.293l31.146-11.709a4.163 4.163 0 0 0 2.649-2.341 3.733 3.733 0 0 0 0-3.509 4.167 4.167 0 0 0-2.355-2.638 6.091 6.091 0 0 0-3.228 0z m65.236-24l-42.612 15.8a4.61 4.61 0 0 0-4.113 2.637 5.1 5.1 0 0 0 0.879 4.975 4.528 4.528 0 0 0 5 1.168 2.206 2.206 0 0 0 1.467-0.293l42.612-15.8a4.17 4.17 0 0 0 2.644-2.341 3.735 3.735 0 0 0 0-3.513 4.166 4.166 0 0 0-2.354-2.634 3.737 3.737 0 0 0-3.523 0z m-125.183-69.948a4.422 4.422 0 0 1-4.112-2.928 7.106 7.106 0 0 1 0-3.513 4.166 4.166 0 0 1 2.645-2.34l26.74-9.951a4.125 4.125 0 0 1 4.411 0.876 4.828 4.828 0 0 1 1.468 4.393 5.051 5.051 0 0 1-2.94 3.513l-26.74 9.95c-0.294-0.294-0.883 0-1.472 0z m49.369-18.438a4.421 4.421 0 0 1-4.112-2.927 7.106 7.106 0 0 1 0-3.513 4.163 4.163 0 0 1 2.644-2.341l42.608-15.8a7.19 7.19 0 0 1 3.528 0 4.145 4.145 0 0 1 2.351 2.634 7.09 7.09 0 0 1 0 3.509 4.167 4.167 0 0 1-2.645 2.344l-42.608 15.8a3.739 3.739 0 0 1-1.766 0.294z m65.241-24.291a4.414 4.414 0 0 1-4.411-3.807 4.54 4.54 0 0 1 2.939-4.974l42.612-15.8a7.17 7.17 0 0 1 3.523 0 4.13 4.13 0 0 1 2.35 2.634 7.063 7.063 0 0 1 0 3.508 4.135 4.135 0 0 1-2.644 2.341L544.553 656.4a3.742 3.742 0 0 1-1.762 0.293z m65.53-24a4.416 4.416 0 0 1-4.116-2.928 7.067 7.067 0 0 1 0-3.509 4.156 4.156 0 0 1 2.645-2.341l42.611-15.811a4.541 4.541 0 1 1 3.234 8.487l-42.612 15.8a10.373 10.373 0 0 0-1.762 0.293z m0 0" fill="#EBEDEF" p-id="21581"></path><path d="M891.043 309.782a27.552 27.552 0 1 0 27.513 27.547 27.451 27.451 0 0 0-27.513-27.547z m0 41.891a14.344 14.344 0 0 1 0-28.687V323a14.338 14.338 0 0 1 0.001 28.673z m-683.49 501.192a20.931 20.931 0 1 0 6.063 14.729 20.75 20.75 0 0 0-6.063-14.729z m-14.722 25.459a10.726 10.726 0 0 1 0-21.451v-0.009a10.73 10.73 0 0 1 0 21.46z m70.145-736.463h-11.1v-10.707c0-3.995-0.565-7.761-4.315-9.14-6.334-2.33-10.787 2.622-10.787 8.737v11.11h-10.71c-4 0-7.762 0.576-9.125 4.333-2.3 6.343 2.641 10.776 8.746 10.776h11.089v10.694c0 4 0.563 7.766 4.314 9.149 6.334 2.336 10.788-2.631 10.788-8.734V156.97h10.682c4 0 7.764-0.567 9.141-4.319 2.327-6.338-2.607-10.79-8.727-10.79z m652.907 654.377h-6.11v-6.115a6.116 6.116 0 1 0-12.232 0v6.115h-6.117a6.124 6.124 0 0 0 0 12.248h6.117v6.114a6.116 6.116 0 1 0 12.232 0v-6.114h6.11a6.124 6.124 0 0 0 0-12.248zM133.576 570.571h-6.117v-6.122a6.117 6.117 0 0 0-12.234 0v6.122h-6.108a6.12 6.12 0 0 0 0 12.24h6.108v6.122a6.117 6.117 0 0 0 12.234 0v-6.122h6.117a6.12 6.12 0 0 0 0-12.24zM646.22 1002H397.3a7.614 7.614 0 0 1-6.146-3.414 6.764 6.764 0 0 1 0-7.167A7.62 7.62 0 0 1 397.3 988h248.92a7.213 7.213 0 0 1 7.172 7.171 6.922 6.922 0 0 1-7.172 6.829zM627.679 89.185a12.3 12.3 0 0 1-12.018-9.611l-9.855-42.3a12.476 12.476 0 0 1 24.274-5.77l9.855 42.3a12.561 12.561 0 0 1-9.374 14.9 12.031 12.031 0 0 1-2.882 0.478z m137.714 108.632a8.188 8.188 0 0 1-2.4-0.24l-42.54-8.652c-6.73-1.441-11.056 6.068-9.615-0.662s7.933-25.055 14.663-23.611l42.539 8.651a12.351 12.351 0 0 1 9.615 14.66 12.586 12.586 0 0 1-12.258 9.854z m-67.536-85.077a11.923 11.923 0 0 1-9.612-4.567 12.545 12.545 0 0 1 1.681-17.544l36.53-30.044a12.464 12.464 0 1 1 15.863 19.229l-36.53 30.04a12.915 12.915 0 0 1-7.932 2.885z m193.43 830.931H474.962l292.131-107.183a71.36 71.36 0 0 0 43.02-91.846l-18.779-51.9a12.31 12.31 0 1 0-23.215 8.2l18.78 51.9a45.161 45.161 0 0 1-1.71 35.853c-5.463 11.269-14.681 20.147-26.631 24.241L431.106 931.407a46.02 46.02 0 0 1-36.191-1.705c-11.27-5.461-20.147-14.684-24.245-26.633L189.7 404.227a47.107 47.107 0 0 1 28.34-60.434l327.451-118.481a46.026 46.026 0 0 1 36.194 1.7c11.271 5.465 20.148 14.684 24.242 26.634l73.753 204.528a12.312 12.312 0 0 0 23.22-8.2l-73.754-204.515a71.9 71.9 0 0 0-92.19-43.025L209.507 320.915a71.546 71.546 0 0 0-43.024 91.846L347.454 911.6c8.877 24.246 32.284 40.956 55.846 45.735 1.367 1.024-1.7 0 0 0h487.987c4.779 0 8.629-2.368 8.629-7.151 0-4.436-3.508-6.515-8.629-6.515z m-109.873-506.89l-16.618-8.9c-6.53-3.562-16.024 1.185-21.37 10.385L605.14 693.171a7.933 7.933 0 0 0-0.887 3.558l0.887 28.192a1.78 1.78 0 0 0-1.184 0.3l-43.032 16.019a4.654 4.654 0 0 0-4.151 2.671 5.186 5.186 0 0 0 0.89 5.049 4.549 4.549 0 0 0 5.044 1.184 2.22 2.22 0 0 0 1.483-0.3l41.248-15.429v0.3c0 2.968 2.671 4.45 5.341 2.968l32.646-19.583a7.054 7.054 0 0 0 2.373-2.671l138.286-254.9c5.342-9.5 4.153-20.18-2.67-23.742zM471.9 774.179l-31.455 11.871a4.215 4.215 0 0 0-2.67 2.374 3.777 3.777 0 0 0 0 3.562 4.464 4.464 0 0 0 4.152 2.968 2.227 2.227 0 0 0 1.486-0.3l31.453-11.872a4.211 4.211 0 0 0 2.675-2.373 3.8 3.8 0 0 0 0-3.558 4.222 4.222 0 0 0-2.378-2.675 6.128 6.128 0 0 0-3.26 0z m65.878-24.332l-43.032 16.024a4.653 4.653 0 0 0-4.153 2.674 5.188 5.188 0 0 0 0.888 5.044 4.56 4.56 0 0 0 5.049 1.185 2.219 2.219 0 0 0 1.481-0.3l43.032-16.024a4.217 4.217 0 0 0 2.67-2.374 3.8 3.8 0 0 0 0-3.561 4.223 4.223 0 0 0-2.377-2.671 3.762 3.762 0 0 0-3.558 0z m-126.42-70.92a4.464 4.464 0 0 1-4.152-2.968 7.208 7.208 0 0 1 0-3.562 4.21 4.21 0 0 1 2.671-2.373l27-10.089a4.152 4.152 0 0 1 4.454 0.888 4.906 4.906 0 0 1 1.482 4.454 5.113 5.113 0 0 1-2.968 3.562l-27 10.088c-0.3-0.3-0.892 0-1.487 0z m49.854-18.694a4.463 4.463 0 0 1-4.151-2.968 7.208 7.208 0 0 1 0-3.562 4.2 4.2 0 0 1 2.67-2.373l43.027-16.024a7.231 7.231 0 0 1 3.562 0 4.2 4.2 0 0 1 2.374 2.671 7.215 7.215 0 0 1 0 3.558 4.214 4.214 0 0 1-2.671 2.377L463 659.935a3.764 3.764 0 0 1-1.784 0.3zM527.1 635.6a4.463 4.463 0 0 1-4.454-3.86 4.606 4.606 0 0 1 2.968-5.044l43.032-16.023a7.211 7.211 0 0 1 3.557 0 4.184 4.184 0 0 1 2.374 2.671 7.211 7.211 0 0 1 0 3.557 4.186 4.186 0 0 1-2.671 2.374l-43.026 16.027a3.756 3.756 0 0 1-1.78 0.3z m66.175-24.337a4.459 4.459 0 0 1-4.156-2.968 7.192 7.192 0 0 1 0-3.558 4.2 4.2 0 0 1 2.671-2.373l43.031-16.027a4.6 4.6 0 0 1 3.265 8.606l-43.033 16.027a10.466 10.466 0 0 0-1.78 0.3z m0 0" fill="#999899" p-id="21582"></path></svg>