<svg t="1783065475747" class="icon" viewBox="0 0 1024 1024" version="1.1" xmlns="http://www.w3.org/2000/svg" p-id="11693" xmlns:xlink="http://www.w3.org/1999/xlink"><path d="M839.1 276.1L553.6 108.8l-0.2-0.1c-24.7-17.3-57.9-17.3-82.6 0l-0.3 0.2-285.6 167.3c-27.5 16.6-44.6 45-44.6 74V677c0 29.1 17.2 57.5 44.9 74.2l286.1 167.7 1.2 0.6c25.1 11.7 53.8 11.7 78.9 0L839.1 751c23-13.9 37.5-36.9 44.2-70.2l0.4-1.9V350.2c0-29.1-17.1-57.4-44.6-74.1z m5.8 398.8l-0.1 0.5c-4.5 21-12.6 34.4-25.5 42.1L533.5 885.1l-0.3 0.1c-6.8 2.8-14 4.2-21.2 4.2-7.2 0-14.3-1.4-21.2-4.2l-0.3-0.1-0.3-0.2L205 717.8c-16-9.3-25.9-25-25.9-40.8V350.2c0-15.6 9.8-31.1 25.6-40.6l286.1-167.8 2.2-1.5c11.3-7.8 26.5-7.8 37.9 0.1l1.1 0.8 287.1 168.4c15.9 9.6 25.8 25.2 25.8 40.7v324.6z" p-id="11694"></path><path d="M716.1 380.4l-7.6 4.2v-0.1L508.8 499.7 301.3 380c-3.2-1.8-6.7-2.8-10.3-2.8-1.8 0-3.6 0.2-5.4 0.7-5.3 1.4-9.8 4.9-12.6 9.6-5.7 9.9-2.3 22.6 7.6 28.3l207.6 119.9v234.8c0.1 11.3 9.3 20.5 20.7 20.5 11.3 0 20.6-9.2 20.7-20.6V535.7l207.2-119.5c9.5-5.8 12.7-18.3 7.2-28-5.6-9.6-18.1-13.1-27.9-7.8z" p-id="11695"></path></svg>