<svg xmlns="http://www.w3.org/2000/svg" viewBox="0 0 1024 1024">
  <path d="M320 221.866667a98.133333 98.133333 0 0 0-98.133333 98.133333v160.042667c90.368 1.28 170.922667 22.869333 229.546666 76.16 59.477333 54.101333 91.008 135.893333 92.544 245.930666H704a98.133333 98.133333 0 0 0 98.133333-98.133333v-171.989333a29.866667 29.866667 0 1 1 59.733334 0V704a157.866667 157.866667 0 0 1-157.866667 157.866667h-384a157.866667 157.866667 0 0 1-157.866667-157.866667v-384a157.866667 157.866667 0 0 1 157.866667-157.866667h152.021333a29.866667 29.866667 0 1 1 0 59.733334H320zM221.866667 704a98.133333 98.133333 0 0 0 98.133333 98.133333h159.914667c-1.493333-97.92-29.269333-160.128-71.594667-198.570666-42.581333-38.741333-105.216-58.24-186.453333-59.52V704zM768 277.333333L725.333333 128l-42.666666 149.333333-128 42.666667 128 42.666667 42.666666 131.797333L768 362.666667l134.912-42.666667L768 277.333333z"/>
</svg>
