<svg xmlns="http://www.w3.org/2000/svg" width="24" height="24" viewBox="0 0 24 24" fill="none">
  <path d="M3 6.5C3 5.12 4.12 4 5.5 4h3.88a1.5 1.5 0 0 1 1.06.44L12 6h6.5A1.5 1.5 0 0 1 20 7.5V19a1.5 1.5 0 0 1-1.5 1.5h-13A1.5 1.5 0 0 1 4 19V7.5" stroke="currentColor" stroke-width="2" stroke-linecap="round" stroke-linejoin="round"/>
  <rect x="4" y="7.5" width="16" height="2.5" rx="0.5" fill="currentColor"/>
  <rect x="6" y="13" width="5" height="5" rx="0.5" fill="currentColor"/>
  <rect x="13" y="13" width="5" height="2" rx="0.5" fill="currentColor"/>
  <rect x="13" y="16" width="5" height="2" rx="0.5" fill="currentColor"/>
</svg>
