<svg viewBox="0 0 24 24" fill="none" xmlns="http://www.w3.org/2000/svg">
  <path d="M3 4a2 2 0 0 1 2-2h14a2 2 0 0 1 2 2v3a2 2 0 0 1-2 2H5a2 2 0 0 1-2-2V4Z" fill="currentColor" opacity=".22"/>
  <path d="M3 13a2 2 0 0 1 2-2h14a2 2 0 0 1 2 2v3a2 2 0 0 1-2 2H5a2 2 0 0 1-2-2v-3Z" fill="currentColor"/>
  <circle cx="6" cy="5.5" r="1" fill="currentColor" opacity=".6"/>
  <circle cx="6" cy="14.5" r="1" fill="currentColor" opacity=".6"/>
  <path d="M5 20h14v1.5a.5.5 0 0 1-.5.5h-13a.5.5 0 0 1-.5-.5V20Z" fill="currentColor" opacity=".4"/>
</svg>
