<svg width="24" height="24" viewBox="0 0 24 24" xmlns="http://www.w3.org/2000/svg">
  <path fill="#000000" fill-rule="evenodd" clip-rule="evenodd" d="M13.55 2.3h-3.1l-.52 2.2a7.9 7.9 0 0 0-1.65.68L6.36 4.0 4.17 6.2l1.18 1.91a7.9 7.9 0 0 0-.69 1.66l-2.19.52v3.1l2.19.52c.17.58.4 1.13.69 1.66l-1.18 1.91 2.19 2.2 1.92-1.18c.52.29 1.07.52 1.65.68l.52 2.2h3.1l.52-2.2a7.9 7.9 0 0 0 1.65-.68l1.92 1.18 2.19-2.2-1.18-1.91c.29-.53.52-1.08.69-1.66l2.19-.52v-3.1l-2.19-.52a7.9 7.9 0 0 0-.69-1.66l1.18-1.91-2.19-2.2-1.92 1.18a7.9 7.9 0 0 0-1.65-.68l-.52-2.2ZM12 15.4a3.4 3.4 0 1 0 0-6.8 3.4 3.4 0 0 0 0 6.8Z"/>
</svg>
