<svg xmlns="http://www.w3.org/2000/svg" width="24" height="24" viewBox="0 0 24 24" fill="none">
  <path d="M4 5.5A1.5 1.5 0 0 1 5.5 4h5A1.5 1.5 0 0 1 12 5.5v4a1.5 1.5 0 0 1-1.5 1.5h-5A1.5 1.5 0 0 1 4 9.5v-4ZM14 5.5A1.5 1.5 0 0 1 15.5 4h3A1.5 1.5 0 0 1 20 5.5v4a1.5 1.5 0 0 1-1.5 1.5h-3A1.5 1.5 0 0 1 14 9.5v-4ZM4 14.5A1.5 1.5 0 0 1 5.5 13h3A1.5 1.5 0 0 1 10 14.5v4A1.5 1.5 0 0 1 8.5 20h-3A1.5 1.5 0 0 1 4 18.5v-4ZM12 14.5a1.5 1.5 0 0 1 1.5-1.5h5a1.5 1.5 0 0 1 1.5 1.5v4a1.5 1.5 0 0 1-1.5 1.5h-5a1.5 1.5 0 0 1-1.5-1.5v-4Z" stroke="currentColor" stroke-width="2" stroke-linejoin="round"/>
</svg>
