<svg width="24" height="24" viewBox="0 0 24 24" xmlns="http://www.w3.org/2000/svg">
  <path fill="#000000" d="M12 17.2a5.2 5.2 0 1 0 0-10.4 5.2 5.2 0 0 0 0 10.4Z"/>
  <path fill="#000000" d="M12 1.8c.55 0 1 .45 1 1v1.65a1 1 0 1 1-2 0V2.8c0-.55.45-1 1-1ZM12 18.55c.55 0 1 .45 1 1v1.65a1 1 0 1 1-2 0v-1.65c0-.55.45-1 1-1ZM22.2 12c0 .55-.45 1-1 1h-1.65a1 1 0 1 1 0-2h1.65c.55 0 1 .45 1 1ZM5.45 12c0 .55-.45 1-1 1H2.8a1 1 0 1 1 0-2h1.65c.55 0 1 .45 1 1ZM19.21 4.79c.39.39.39 1.02 0 1.41l-1.17 1.17a1 1 0 0 1-1.41-1.41L17.8 4.8a1 1 0 0 1 1.41 0ZM7.37 16.63c.39.39.39 1.02 0 1.41L6.2 19.21a1 1 0 0 1-1.41-1.41l1.17-1.17a1 1 0 0 1 1.41 0ZM19.21 19.21c-.39.39-1.02.39-1.41 0l-1.17-1.17a1 1 0 0 1 1.41-1.41l1.17 1.17c.39.39.39 1.02 0 1.41ZM7.37 7.37c-.39.39-1.02.39-1.41 0L4.79 6.2A1 1 0 0 1 6.2 4.79l1.17 1.17c.39.39.39 1.02 0 1.41Z"/>
</svg>
